<mxfile host="app.diagrams.net" modified="2023-12-14T00:19:03.472Z" agent="Mozilla/5.0 (Windows NT 10.0; Win64; x64) AppleWebKit/537.36 (KHTML, like Gecko) Chrome/120.0.0.0 Safari/537.36" etag="KYbM9i3ixmVqNDO6-_AF" version="22.1.8" type="github">
  <diagram name="Page-1" id="LIDlSQXBO6ZEx35nwg12">
    <mxGraphModel dx="2350" dy="807" grid="1" gridSize="10" guides="1" tooltips="1" connect="1" arrows="1" fold="1" page="1" pageScale="1" pageWidth="850" pageHeight="1100" math="0" shadow="0">
      <root>
        <mxCell id="0" />
        <mxCell id="1" parent="0" />
        <mxCell id="z7n0p_RYgnM_JUPu39Se-12" style="edgeStyle=orthogonalEdgeStyle;rounded=0;orthogonalLoop=1;jettySize=auto;html=1;exitX=1;exitY=0.25;exitDx=0;exitDy=0;entryX=0;entryY=0.25;entryDx=0;entryDy=0;" edge="1" parent="1" source="z7n0p_RYgnM_JUPu39Se-1" target="z7n0p_RYgnM_JUPu39Se-2">
          <mxGeometry relative="1" as="geometry">
            <Array as="points">
              <mxPoint x="280" y="135" />
              <mxPoint x="280" y="215" />
            </Array>
          </mxGeometry>
        </mxCell>
        <mxCell id="z7n0p_RYgnM_JUPu39Se-28" style="edgeStyle=orthogonalEdgeStyle;rounded=0;orthogonalLoop=1;jettySize=auto;html=1;exitX=1;exitY=0.75;exitDx=0;exitDy=0;entryX=0;entryY=0.75;entryDx=0;entryDy=0;" edge="1" parent="1" source="z7n0p_RYgnM_JUPu39Se-1" target="z7n0p_RYgnM_JUPu39Se-2">
          <mxGeometry relative="1" as="geometry">
            <mxPoint x="210" y="260" as="targetPoint" />
            <Array as="points">
              <mxPoint x="210" y="165" />
              <mxPoint x="210" y="250" />
              <mxPoint x="280" y="250" />
              <mxPoint x="280" y="245" />
            </Array>
          </mxGeometry>
        </mxCell>
        <mxCell id="z7n0p_RYgnM_JUPu39Se-1" value="&lt;font style=&quot;font-size: 16px;&quot;&gt;Korisnik&lt;/font&gt;" style="rounded=0;whiteSpace=wrap;html=1;" vertex="1" parent="1">
          <mxGeometry x="80" y="120" width="120" height="60" as="geometry" />
        </mxCell>
        <mxCell id="z7n0p_RYgnM_JUPu39Se-47" style="edgeStyle=orthogonalEdgeStyle;rounded=0;orthogonalLoop=1;jettySize=auto;html=1;exitX=1;exitY=0.75;exitDx=0;exitDy=0;entryX=0;entryY=0.5;entryDx=0;entryDy=0;" edge="1" parent="1" source="z7n0p_RYgnM_JUPu39Se-2" target="z7n0p_RYgnM_JUPu39Se-3">
          <mxGeometry relative="1" as="geometry">
            <mxPoint x="440" y="350" as="targetPoint" />
            <Array as="points">
              <mxPoint x="410" y="210" />
              <mxPoint x="520" y="210" />
              <mxPoint x="520" y="390" />
            </Array>
          </mxGeometry>
        </mxCell>
        <mxCell id="z7n0p_RYgnM_JUPu39Se-2" value="&lt;font style=&quot;font-size: 16px;&quot;&gt;Plan&lt;/font&gt;" style="rounded=0;whiteSpace=wrap;html=1;" vertex="1" parent="1">
          <mxGeometry x="290" y="200" width="120" height="60" as="geometry" />
        </mxCell>
        <mxCell id="z7n0p_RYgnM_JUPu39Se-100" style="edgeStyle=orthogonalEdgeStyle;rounded=0;orthogonalLoop=1;jettySize=auto;html=1;exitX=1;exitY=0.75;exitDx=0;exitDy=0;entryX=0;entryY=0.25;entryDx=0;entryDy=0;" edge="1" parent="1" source="z7n0p_RYgnM_JUPu39Se-3" target="z7n0p_RYgnM_JUPu39Se-4">
          <mxGeometry relative="1" as="geometry" />
        </mxCell>
        <mxCell id="z7n0p_RYgnM_JUPu39Se-3" value="&lt;font style=&quot;font-size: 16px;&quot;&gt;Vezba&lt;/font&gt;" style="rounded=0;whiteSpace=wrap;html=1;" vertex="1" parent="1">
          <mxGeometry x="540" y="360" width="120" height="60" as="geometry" />
        </mxCell>
        <mxCell id="z7n0p_RYgnM_JUPu39Se-101" style="edgeStyle=orthogonalEdgeStyle;rounded=0;orthogonalLoop=1;jettySize=auto;html=1;exitX=1;exitY=0.25;exitDx=0;exitDy=0;" edge="1" parent="1" source="z7n0p_RYgnM_JUPu39Se-4">
          <mxGeometry relative="1" as="geometry">
            <mxPoint x="990" y="280" as="targetPoint" />
          </mxGeometry>
        </mxCell>
        <mxCell id="z7n0p_RYgnM_JUPu39Se-104" style="edgeStyle=orthogonalEdgeStyle;rounded=0;orthogonalLoop=1;jettySize=auto;html=1;exitX=1;exitY=0.75;exitDx=0;exitDy=0;" edge="1" parent="1" source="z7n0p_RYgnM_JUPu39Se-4">
          <mxGeometry relative="1" as="geometry">
            <mxPoint x="1160" y="535" as="targetPoint" />
          </mxGeometry>
        </mxCell>
        <mxCell id="z7n0p_RYgnM_JUPu39Se-4" value="&lt;font style=&quot;font-size: 16px;&quot;&gt;Pracenje Korisnika&lt;/font&gt;" style="rounded=0;whiteSpace=wrap;html=1;" vertex="1" parent="1">
          <mxGeometry x="840" y="490" width="120" height="60" as="geometry" />
        </mxCell>
        <mxCell id="z7n0p_RYgnM_JUPu39Se-6" value="&lt;font style=&quot;font-size: 15px;&quot;&gt;Registracija&lt;/font&gt;" style="text;html=1;align=center;verticalAlign=middle;resizable=0;points=[];autosize=1;strokeColor=none;fillColor=none;" vertex="1" parent="1">
          <mxGeometry x="-20" y="160" width="100" height="30" as="geometry" />
        </mxCell>
        <mxCell id="z7n0p_RYgnM_JUPu39Se-11" value="&lt;font style=&quot;font-size: 16px;&quot;&gt;Iskustvo&lt;/font&gt;" style="text;html=1;align=center;verticalAlign=middle;resizable=0;points=[];autosize=1;strokeColor=none;fillColor=none;" vertex="1" parent="1">
          <mxGeometry x="-5" y="90" width="80" height="30" as="geometry" />
        </mxCell>
        <mxCell id="z7n0p_RYgnM_JUPu39Se-13" value="&lt;font style=&quot;font-size: 14px;&quot;&gt;Kreiran Profil&lt;/font&gt;" style="text;html=1;align=center;verticalAlign=middle;resizable=0;points=[];autosize=1;strokeColor=none;fillColor=none;" vertex="1" parent="1">
          <mxGeometry x="200" y="108" width="100" height="30" as="geometry" />
        </mxCell>
        <mxCell id="z7n0p_RYgnM_JUPu39Se-25" value="&lt;font style=&quot;font-size: 14px;&quot;&gt;Cilj&lt;/font&gt;" style="text;html=1;align=center;verticalAlign=middle;resizable=0;points=[];autosize=1;strokeColor=none;fillColor=none;" vertex="1" parent="1">
          <mxGeometry x="215" y="215" width="40" height="30" as="geometry" />
        </mxCell>
        <mxCell id="z7n0p_RYgnM_JUPu39Se-29" value="&lt;font style=&quot;font-size: 14px;&quot;&gt;Algoritam Preporuke&lt;/font&gt;" style="text;html=1;align=center;verticalAlign=middle;resizable=0;points=[];autosize=1;strokeColor=none;fillColor=none;" vertex="1" parent="1">
          <mxGeometry x="-30" y="260" width="150" height="30" as="geometry" />
        </mxCell>
        <mxCell id="z7n0p_RYgnM_JUPu39Se-36" value="" style="edgeStyle=none;orthogonalLoop=1;jettySize=auto;html=1;rounded=0;entryX=0.25;entryY=1;entryDx=0;entryDy=0;" edge="1" parent="1" target="z7n0p_RYgnM_JUPu39Se-1">
          <mxGeometry width="100" relative="1" as="geometry">
            <mxPoint x="110" y="280" as="sourcePoint" />
            <mxPoint x="150" y="280" as="targetPoint" />
            <Array as="points" />
          </mxGeometry>
        </mxCell>
        <mxCell id="z7n0p_RYgnM_JUPu39Se-38" value="" style="edgeStyle=none;orthogonalLoop=1;jettySize=auto;html=1;rounded=0;" edge="1" parent="1">
          <mxGeometry width="100" relative="1" as="geometry">
            <mxPoint x="-50" y="160" as="sourcePoint" />
            <mxPoint x="80" y="160" as="targetPoint" />
            <Array as="points" />
          </mxGeometry>
        </mxCell>
        <mxCell id="z7n0p_RYgnM_JUPu39Se-40" value="" style="edgeStyle=none;orthogonalLoop=1;jettySize=auto;html=1;rounded=0;entryX=0;entryY=0;entryDx=0;entryDy=0;" edge="1" parent="1" target="z7n0p_RYgnM_JUPu39Se-1">
          <mxGeometry width="100" relative="1" as="geometry">
            <mxPoint x="-80" y="120" as="sourcePoint" />
            <mxPoint x="70" y="120" as="targetPoint" />
            <Array as="points" />
          </mxGeometry>
        </mxCell>
        <mxCell id="z7n0p_RYgnM_JUPu39Se-41" value="" style="edgeStyle=none;orthogonalLoop=1;jettySize=auto;html=1;rounded=0;" edge="1" parent="1">
          <mxGeometry width="100" relative="1" as="geometry">
            <mxPoint x="180" y="280" as="sourcePoint" />
            <mxPoint x="180" y="180" as="targetPoint" />
            <Array as="points" />
          </mxGeometry>
        </mxCell>
        <mxCell id="z7n0p_RYgnM_JUPu39Se-42" value="&lt;font style=&quot;font-size: 14px;&quot;&gt;Trener&lt;/font&gt;" style="text;html=1;align=center;verticalAlign=middle;resizable=0;points=[];autosize=1;strokeColor=none;fillColor=none;" vertex="1" parent="1">
          <mxGeometry x="170" y="260" width="60" height="30" as="geometry" />
        </mxCell>
        <mxCell id="z7n0p_RYgnM_JUPu39Se-43" value="" style="edgeStyle=none;orthogonalLoop=1;jettySize=auto;html=1;rounded=0;entryX=0.25;entryY=0;entryDx=0;entryDy=0;" edge="1" parent="1" target="z7n0p_RYgnM_JUPu39Se-1">
          <mxGeometry width="100" relative="1" as="geometry">
            <mxPoint x="110" y="20" as="sourcePoint" />
            <mxPoint x="170" y="30" as="targetPoint" />
            <Array as="points" />
          </mxGeometry>
        </mxCell>
        <mxCell id="z7n0p_RYgnM_JUPu39Se-44" value="&lt;font style=&quot;font-size: 14px;&quot;&gt;Provera naloga&lt;/font&gt;" style="text;html=1;align=center;verticalAlign=middle;resizable=0;points=[];autosize=1;strokeColor=none;fillColor=none;" vertex="1" parent="1">
          <mxGeometry y="8" width="120" height="30" as="geometry" />
        </mxCell>
        <mxCell id="z7n0p_RYgnM_JUPu39Se-45" value="" style="edgeStyle=none;orthogonalLoop=1;jettySize=auto;html=1;rounded=0;" edge="1" parent="1">
          <mxGeometry width="100" relative="1" as="geometry">
            <mxPoint x="178" y="20" as="sourcePoint" />
            <mxPoint x="178" y="120" as="targetPoint" />
            <Array as="points" />
          </mxGeometry>
        </mxCell>
        <mxCell id="z7n0p_RYgnM_JUPu39Se-46" value="&lt;font style=&quot;font-size: 14px;&quot;&gt;Zastita podataka&lt;/font&gt;" style="text;html=1;align=center;verticalAlign=middle;resizable=0;points=[];autosize=1;strokeColor=none;fillColor=none;" vertex="1" parent="1">
          <mxGeometry x="170" y="8" width="130" height="30" as="geometry" />
        </mxCell>
        <mxCell id="z7n0p_RYgnM_JUPu39Se-48" value="&lt;font style=&quot;font-size: 14px;&quot;&gt;Kreiran plan&lt;/font&gt;" style="text;html=1;align=center;verticalAlign=middle;resizable=0;points=[];autosize=1;strokeColor=none;fillColor=none;" vertex="1" parent="1">
          <mxGeometry x="410" y="185" width="100" height="30" as="geometry" />
        </mxCell>
        <mxCell id="z7n0p_RYgnM_JUPu39Se-55" value="" style="edgeStyle=none;orthogonalLoop=1;jettySize=auto;html=1;rounded=0;" edge="1" parent="1">
          <mxGeometry width="100" relative="1" as="geometry">
            <mxPoint x="-80" y="480" as="sourcePoint" />
            <mxPoint x="-80" y="120" as="targetPoint" />
            <Array as="points" />
          </mxGeometry>
        </mxCell>
        <mxCell id="z7n0p_RYgnM_JUPu39Se-56" value="" style="endArrow=none;html=1;rounded=0;edgeStyle=orthogonalEdgeStyle;" edge="1" parent="1">
          <mxGeometry width="50" height="50" relative="1" as="geometry">
            <mxPoint x="-80" y="480" as="sourcePoint" />
            <mxPoint x="450" y="240" as="targetPoint" />
          </mxGeometry>
        </mxCell>
        <mxCell id="z7n0p_RYgnM_JUPu39Se-57" value="" style="edgeStyle=none;orthogonalLoop=1;jettySize=auto;html=1;rounded=0;" edge="1" parent="1">
          <mxGeometry width="100" relative="1" as="geometry">
            <mxPoint x="410" y="240" as="sourcePoint" />
            <mxPoint x="450" y="240" as="targetPoint" />
            <Array as="points" />
          </mxGeometry>
        </mxCell>
        <mxCell id="z7n0p_RYgnM_JUPu39Se-58" value="&lt;font style=&quot;font-size: 16px;&quot;&gt;Promeni Iskustvo ( plan je pretezak)&lt;/font&gt;" style="text;html=1;align=center;verticalAlign=middle;resizable=0;points=[];autosize=1;strokeColor=none;fillColor=none;" vertex="1" parent="1">
          <mxGeometry x="10" y="450" width="280" height="30" as="geometry" />
        </mxCell>
        <mxCell id="z7n0p_RYgnM_JUPu39Se-61" value="&lt;font style=&quot;font-size: 14px;&quot;&gt;Baza podataka i vezbi&lt;/font&gt;" style="text;html=1;align=center;verticalAlign=middle;resizable=0;points=[];autosize=1;strokeColor=none;fillColor=none;" vertex="1" parent="1">
          <mxGeometry x="170" y="348" width="160" height="30" as="geometry" />
        </mxCell>
        <mxCell id="z7n0p_RYgnM_JUPu39Se-66" value="" style="edgeStyle=none;orthogonalLoop=1;jettySize=auto;html=1;rounded=0;entryX=0.25;entryY=0;entryDx=0;entryDy=0;" edge="1" parent="1" target="z7n0p_RYgnM_JUPu39Se-2">
          <mxGeometry width="100" relative="1" as="geometry">
            <mxPoint x="320" y="40" as="sourcePoint" />
            <mxPoint x="370" y="40" as="targetPoint" />
            <Array as="points" />
          </mxGeometry>
        </mxCell>
        <mxCell id="z7n0p_RYgnM_JUPu39Se-67" value="&lt;font style=&quot;font-size: 14px;&quot;&gt;Pravilni rad vezbi&lt;/font&gt;" style="text;html=1;align=center;verticalAlign=middle;resizable=0;points=[];autosize=1;strokeColor=none;fillColor=none;" vertex="1" parent="1">
          <mxGeometry x="315" y="30" width="130" height="30" as="geometry" />
        </mxCell>
        <mxCell id="z7n0p_RYgnM_JUPu39Se-71" value="" style="edgeStyle=none;orthogonalLoop=1;jettySize=auto;html=1;rounded=0;entryX=0.75;entryY=0;entryDx=0;entryDy=0;" edge="1" parent="1" target="z7n0p_RYgnM_JUPu39Se-2">
          <mxGeometry width="100" relative="1" as="geometry">
            <mxPoint x="380" y="90" as="sourcePoint" />
            <mxPoint x="430" y="90" as="targetPoint" />
            <Array as="points" />
          </mxGeometry>
        </mxCell>
        <mxCell id="z7n0p_RYgnM_JUPu39Se-73" value="&lt;font style=&quot;font-size: 14px;&quot;&gt;Preporuka Ishrane&lt;/font&gt;" style="text;html=1;align=center;verticalAlign=middle;resizable=0;points=[];autosize=1;strokeColor=none;fillColor=none;" vertex="1" parent="1">
          <mxGeometry x="370" y="78" width="140" height="30" as="geometry" />
        </mxCell>
        <mxCell id="z7n0p_RYgnM_JUPu39Se-78" value="&lt;font style=&quot;font-size: 15px;&quot;&gt;Statistika&lt;/font&gt;" style="text;html=1;align=center;verticalAlign=middle;resizable=0;points=[];autosize=1;strokeColor=none;fillColor=none;" vertex="1" parent="1">
          <mxGeometry x="660" y="378" width="80" height="30" as="geometry" />
        </mxCell>
        <mxCell id="z7n0p_RYgnM_JUPu39Se-81" value="&lt;font style=&quot;font-size: 15px;&quot;&gt;Pracenje pomocu senzora&lt;/font&gt;" style="text;html=1;align=center;verticalAlign=middle;resizable=0;points=[];autosize=1;strokeColor=none;fillColor=none;" vertex="1" parent="1">
          <mxGeometry x="380" y="578" width="200" height="30" as="geometry" />
        </mxCell>
        <mxCell id="z7n0p_RYgnM_JUPu39Se-82" value="&lt;font style=&quot;font-size: 15px;&quot;&gt;Azuriranje Planova&lt;/font&gt;" style="text;html=1;align=center;verticalAlign=middle;resizable=0;points=[];autosize=1;strokeColor=none;fillColor=none;" vertex="1" parent="1">
          <mxGeometry x="620" y="578" width="150" height="30" as="geometry" />
        </mxCell>
        <mxCell id="z7n0p_RYgnM_JUPu39Se-83" value="" style="edgeStyle=none;orthogonalLoop=1;jettySize=auto;html=1;rounded=0;entryX=0.25;entryY=1;entryDx=0;entryDy=0;" edge="1" parent="1" target="z7n0p_RYgnM_JUPu39Se-2">
          <mxGeometry width="100" relative="1" as="geometry">
            <mxPoint x="320" y="400" as="sourcePoint" />
            <mxPoint x="410" y="400" as="targetPoint" />
            <Array as="points" />
          </mxGeometry>
        </mxCell>
        <mxCell id="z7n0p_RYgnM_JUPu39Se-84" value="" style="edgeStyle=none;orthogonalLoop=1;jettySize=auto;html=1;rounded=0;exitX=0.992;exitY=0.713;exitDx=0;exitDy=0;exitPerimeter=0;" edge="1" parent="1" source="z7n0p_RYgnM_JUPu39Se-81">
          <mxGeometry width="100" relative="1" as="geometry">
            <mxPoint x="520" y="510" as="sourcePoint" />
            <mxPoint x="580" y="420" as="targetPoint" />
            <Array as="points" />
          </mxGeometry>
        </mxCell>
        <mxCell id="z7n0p_RYgnM_JUPu39Se-85" value="" style="edgeStyle=none;orthogonalLoop=1;jettySize=auto;html=1;rounded=0;entryX=0.673;entryY=1.057;entryDx=0;entryDy=0;entryPerimeter=0;" edge="1" parent="1" target="z7n0p_RYgnM_JUPu39Se-3">
          <mxGeometry width="100" relative="1" as="geometry">
            <mxPoint x="620" y="600" as="sourcePoint" />
            <mxPoint x="720" y="550" as="targetPoint" />
            <Array as="points" />
          </mxGeometry>
        </mxCell>
        <mxCell id="z7n0p_RYgnM_JUPu39Se-87" value="&lt;font style=&quot;font-size: 14px;&quot;&gt;AI kreira plan&lt;/font&gt;" style="text;html=1;align=center;verticalAlign=middle;resizable=0;points=[];autosize=1;strokeColor=none;fillColor=none;" vertex="1" parent="1">
          <mxGeometry x="340" y="390" width="110" height="30" as="geometry" />
        </mxCell>
        <mxCell id="z7n0p_RYgnM_JUPu39Se-88" value="" style="edgeStyle=none;orthogonalLoop=1;jettySize=auto;html=1;rounded=0;entryX=0.833;entryY=1;entryDx=0;entryDy=0;entryPerimeter=0;" edge="1" parent="1" target="z7n0p_RYgnM_JUPu39Se-2">
          <mxGeometry width="100" relative="1" as="geometry">
            <mxPoint x="390" y="400" as="sourcePoint" />
            <mxPoint x="440" y="390" as="targetPoint" />
            <Array as="points" />
          </mxGeometry>
        </mxCell>
        <mxCell id="z7n0p_RYgnM_JUPu39Se-90" value="" style="edgeStyle=none;orthogonalLoop=1;jettySize=auto;html=1;rounded=0;" edge="1" parent="1">
          <mxGeometry width="100" relative="1" as="geometry">
            <mxPoint x="760" y="230" as="sourcePoint" />
            <mxPoint x="520" y="230" as="targetPoint" />
            <Array as="points" />
          </mxGeometry>
        </mxCell>
        <mxCell id="z7n0p_RYgnM_JUPu39Se-91" value="&lt;font style=&quot;font-size: 13px;&quot;&gt;Rucno menjanje intenziteta&lt;/font&gt;" style="text;html=1;align=center;verticalAlign=middle;resizable=0;points=[];autosize=1;strokeColor=none;fillColor=none;" vertex="1" parent="1">
          <mxGeometry x="640" y="200" width="180" height="30" as="geometry" />
        </mxCell>
        <mxCell id="z7n0p_RYgnM_JUPu39Se-93" value="" style="edgeStyle=none;orthogonalLoop=1;jettySize=auto;html=1;rounded=0;entryX=0.25;entryY=0;entryDx=0;entryDy=0;" edge="1" parent="1" target="z7n0p_RYgnM_JUPu39Se-3">
          <mxGeometry width="100" relative="1" as="geometry">
            <mxPoint x="570" y="40" as="sourcePoint" />
            <mxPoint x="630" y="260" as="targetPoint" />
            <Array as="points" />
          </mxGeometry>
        </mxCell>
        <mxCell id="z7n0p_RYgnM_JUPu39Se-94" value="&lt;font style=&quot;font-size: 14px;&quot;&gt;Tacni podaci o vezbi&lt;/font&gt;" style="text;html=1;align=center;verticalAlign=middle;resizable=0;points=[];autosize=1;strokeColor=none;fillColor=none;" vertex="1" parent="1">
          <mxGeometry x="475" y="20" width="150" height="30" as="geometry" />
        </mxCell>
        <mxCell id="z7n0p_RYgnM_JUPu39Se-95" value="" style="edgeStyle=none;orthogonalLoop=1;jettySize=auto;html=1;rounded=0;entryX=0.917;entryY=0;entryDx=0;entryDy=0;entryPerimeter=0;" edge="1" parent="1" target="z7n0p_RYgnM_JUPu39Se-3">
          <mxGeometry width="100" relative="1" as="geometry">
            <mxPoint x="650" y="40" as="sourcePoint" />
            <mxPoint x="710" y="270" as="targetPoint" />
            <Array as="points" />
          </mxGeometry>
        </mxCell>
        <mxCell id="z7n0p_RYgnM_JUPu39Se-96" value="&lt;font style=&quot;font-size: 15px;&quot;&gt;video za pravilan rad&lt;/font&gt;" style="text;html=1;align=center;verticalAlign=middle;resizable=0;points=[];autosize=1;strokeColor=none;fillColor=none;" vertex="1" parent="1">
          <mxGeometry x="640" y="30" width="160" height="30" as="geometry" />
        </mxCell>
        <mxCell id="z7n0p_RYgnM_JUPu39Se-98" style="edgeStyle=orthogonalEdgeStyle;rounded=0;orthogonalLoop=1;jettySize=auto;html=1;exitX=1;exitY=0.25;exitDx=0;exitDy=0;" edge="1" parent="1" source="z7n0p_RYgnM_JUPu39Se-3">
          <mxGeometry relative="1" as="geometry">
            <mxPoint x="685" y="375" as="sourcePoint" />
            <mxPoint x="755" y="230" as="targetPoint" />
          </mxGeometry>
        </mxCell>
        <mxCell id="z7n0p_RYgnM_JUPu39Se-102" value="" style="edgeStyle=none;orthogonalLoop=1;jettySize=auto;html=1;rounded=0;" edge="1" parent="1">
          <mxGeometry width="100" relative="1" as="geometry">
            <mxPoint x="990" y="280" as="sourcePoint" />
            <mxPoint x="760" y="280" as="targetPoint" />
            <Array as="points" />
          </mxGeometry>
        </mxCell>
        <mxCell id="z7n0p_RYgnM_JUPu39Se-103" value="&lt;font style=&quot;font-size: 14px;&quot;&gt;Feedback o umoru&amp;nbsp;&lt;/font&gt;" style="text;html=1;align=center;verticalAlign=middle;resizable=0;points=[];autosize=1;strokeColor=none;fillColor=none;" vertex="1" parent="1">
          <mxGeometry x="820" y="248" width="140" height="30" as="geometry" />
        </mxCell>
        <mxCell id="z7n0p_RYgnM_JUPu39Se-105" value="&lt;font style=&quot;font-size: 15px;&quot;&gt;Zavrsi trening&lt;/font&gt;" style="text;html=1;align=center;verticalAlign=middle;resizable=0;points=[];autosize=1;strokeColor=none;fillColor=none;" vertex="1" parent="1">
          <mxGeometry x="1005" y="505" width="110" height="30" as="geometry" />
        </mxCell>
        <mxCell id="z7n0p_RYgnM_JUPu39Se-107" value="&lt;font style=&quot;font-size: 15px;&quot;&gt;Senzori&lt;/font&gt;" style="text;html=1;align=center;verticalAlign=middle;resizable=0;points=[];autosize=1;strokeColor=none;fillColor=none;" vertex="1" parent="1">
          <mxGeometry x="800" y="650" width="70" height="30" as="geometry" />
        </mxCell>
        <mxCell id="z7n0p_RYgnM_JUPu39Se-109" value="" style="edgeStyle=none;orthogonalLoop=1;jettySize=auto;html=1;rounded=0;" edge="1" parent="1">
          <mxGeometry width="100" relative="1" as="geometry">
            <mxPoint x="946" y="680" as="sourcePoint" />
            <mxPoint x="946" y="550" as="targetPoint" />
            <Array as="points" />
          </mxGeometry>
        </mxCell>
        <mxCell id="z7n0p_RYgnM_JUPu39Se-110" value="" style="edgeStyle=none;orthogonalLoop=1;jettySize=auto;html=1;rounded=0;entryX=0.25;entryY=1;entryDx=0;entryDy=0;" edge="1" parent="1" target="z7n0p_RYgnM_JUPu39Se-4">
          <mxGeometry width="100" relative="1" as="geometry">
            <mxPoint x="870" y="675" as="sourcePoint" />
            <mxPoint x="920" y="640" as="targetPoint" />
            <Array as="points" />
          </mxGeometry>
        </mxCell>
        <mxCell id="z7n0p_RYgnM_JUPu39Se-111" value="&lt;font style=&quot;font-size: 14px;&quot;&gt;Ai obavestenja (Timer...)&lt;/font&gt;" style="text;html=1;align=center;verticalAlign=middle;resizable=0;points=[];autosize=1;strokeColor=none;fillColor=none;" vertex="1" parent="1">
          <mxGeometry x="945" y="660" width="170" height="30" as="geometry" />
        </mxCell>
        <mxCell id="z7n0p_RYgnM_JUPu39Se-113" value="" style="edgeStyle=none;orthogonalLoop=1;jettySize=auto;html=1;rounded=0;entryX=0.75;entryY=0;entryDx=0;entryDy=0;" edge="1" parent="1" target="z7n0p_RYgnM_JUPu39Se-4">
          <mxGeometry width="100" relative="1" as="geometry">
            <mxPoint x="930" y="360" as="sourcePoint" />
            <mxPoint x="1010" y="360" as="targetPoint" />
            <Array as="points" />
          </mxGeometry>
        </mxCell>
        <mxCell id="z7n0p_RYgnM_JUPu39Se-114" value="&lt;font style=&quot;font-size: 14px;&quot;&gt;Provera Fizickog stanja&amp;nbsp;&lt;/font&gt;" style="text;html=1;align=center;verticalAlign=middle;resizable=0;points=[];autosize=1;strokeColor=none;fillColor=none;" vertex="1" parent="1">
          <mxGeometry x="820" y="330" width="170" height="30" as="geometry" />
        </mxCell>
      </root>
    </mxGraphModel>
  </diagram>
</mxfile>
